# xmcd
#
# Track frame offsets: 
#        182
#        14857
#        32207
#        50907
#        64915
#        78335
#        96392
#        115712
#        128902
#        142335
#        157062
#        170225
#        183157
#        193402
#        203417
#        216972
#        229752
#        240922
#        257672
#        276572
#        304915
#        317627
#
# Disc length: 4410 seconds
#
# Revision: 15
# Processed by: cddbd v1.5.2PL0 Copyright (c) Steve Scherf et al.
# Submitted via: ExactAudioCopyFreeDBPlugin 1.0
#
DISCID=58113816,58113c16
DTITLE=Marvin Gaye - The Very Best of Marvin Gaye
DYEAR=1994
DGENRE=Motown
TTITLE0=I Heard It through the Grapevine
TTITLE1=What's Going On
TTITLE2=(Sexual) Healing
TTITLE3=Marvin Gaye and Diana Ross - You Are Everything
TTITLE4=Marvin Gaye and Kim Weston - It Takes Two
TTITLE5=Let's Get It On
TTITLE6=Abraham, Martin and John
TTITLE7=Too Busy Thinking about My Baby
TTITLE8=How Sweet It Is (To Be Loved by You)
TTITLE9=Mercy Mercy Me (The Ecology)
TTITLE10=Marvin Gaye and Diana Ross - Stop, Look, Listen (To Your Heart)
TTITLE11=Marvin Gaye and Tammi Terrell - You're All I Need to Get By
TTITLE12=Marvin Gaye and Tammi Terrell - Ain't Nothing like the Real Thi
TTITLE12=ng
TTITLE13=Wherever I Lay My Hat (That's My Home)
TTITLE14=Marvin Gaye and Tammi Terrell - The Onion Song
TTITLE15=Marvin Gaye and Tammi Terrell - You Ain't Livin' till You're Lo
TTITLE15=vin'
TTITLE16=Marvin Gaye and Tammi Terrell - Good Lovin' Ain't Easy to Come 
TTITLE16=By
TTITLE17=That's the Way Love Is
TTITLE18=Got to Give It Up (Part I)
TTITLE19=When Did You Stop Loving Me, When Did I Stop Loving You
TTITLE20=Can I Get a Witness
TTITLE21=Lucky Lucky Me
EXTD=
EXTT0=
EXTT1=
EXTT2=
EXTT3=
EXTT4=
EXTT5=
EXTT6=
EXTT7=
EXTT8=
EXTT9=
EXTT10=
EXTT11=
EXTT12=
EXTT13=
EXTT14=
EXTT15=
EXTT16=
EXTT17=
EXTT18=
EXTT19=
EXTT20=
EXTT21=
PLAYORDER=
